<?xml version="1.0" encoding="utf-8"?>
<svg xmlns="http://www.w3.org/2000/svg" width="235.579" height="86.663" viewBox="0 0 235.579 86.663">
  <g id="Group_2" data-name="Group 2" transform="translate(-394.258 -119.146)">
    <path id="Path_1" data-name="Path 1" d="M410.887,161.8a6.255,6.255,0,0,0-9.372,0c-1.086,1.544-1.428,2.686-1.428,6.857,0,4.23.342,5.371,1.428,6.914a6.25,6.25,0,0,0,9.372,0c1.083-1.542,1.427-2.684,1.427-6.856,0-4.229-.343-5.371-1.427-6.915M397.4,157.568a12.288,12.288,0,0,1,17.6,0c2.23,2.459,3.144,4.858,3.144,11.086,0,6.286-.914,8.685-3.144,11.141a12.273,12.273,0,0,1-17.6,0c-2.227-2.456-3.143-4.854-3.143-11.141C394.258,162.426,395.173,160.026,397.4,157.568Z" transform="translate(0 10.929)" fill="#f77e10"/>
    <path id="Path_2" data-name="Path 2" d="M433.878,168.711c0-4.515-.287-9.026-5.77-9.026-5.429,0-5.714,4.8-5.714,9.026,0,4.172.285,8.97,5.714,8.97,5.483,0,5.77-4.513,5.77-8.97M416.166,154.2h5.828v3.029a10.22,10.22,0,0,1,7.484-3.369,9.445,9.445,0,0,1,7.771,3.768c1.6,2.059,2.058,3.943,2.058,11.086,0,7.086-.458,8.97-2.058,11.028a9.44,9.44,0,0,1-7.771,3.772,9.985,9.985,0,0,1-7.484-2.706v14.076h-5.828Z" transform="translate(6.898 10.929)" fill="#f77e10"/>
    <path id="Path_3" data-name="Path 3" d="M438.77,147.424H444.6v8.8h4.227v4.459H444.6v16.855c0,1.6.63,2.171,2.058,2.171h2.17v5.487H445.8c-4.057,0-7.029-2.573-7.029-7.142V160.68h-2.914v-4.459h2.914v-8.8" transform="translate(13.097 8.903)" fill="#f77e10"/>
    <path id="Path_4" data-name="Path 4" d="M451.1,157.931h5.829V186.9H451.1Zm6.481-15.936v10.052H447.533Z" transform="translate(16.774 7.194)" fill="#f77e10"/>
    <path id="Path_5" data-name="Path 5" d="M459.391,154.2h5.829v3.086h.114a8.037,8.037,0,0,1,6.877-3.425c4.058,0,6.114,1.655,8.169,3.768,2.4-2.628,5.2-3.768,9.144-3.768,4.515,0,10.323,3.484,10.323,10.055v19.256h-5.827V165.912c0-3.943-2.457-6.227-5.716-6.227-3.315,0-5.771,2.284-5.771,6.227v17.256H476.7V165.912c0-3.943-2.454-6.227-5.71-6.227-3.316,0-5.772,2.284-5.772,6.227v17.256h-5.829V154.2" transform="translate(20.507 10.929)" fill="#f77e10"/>
    <path id="Path_6" data-name="Path 6" d="M510.748,170.882h-6.969c-3.429,0-5.028,1.371-5.028,3.484,0,1.945,1.542,3.657,5.486,3.657,4.854,0,6.511-.514,6.511-5.028v-2.113m0,9.713h-.112c-1.2,2-3.2,2.916-7.144,2.916-6.457,0-10.228-3.83-10.228-8.857,0-4.63,3.2-8.572,9.43-8.572h8.053v-3.028c0-2.744-1.77-3.714-5.941-3.714-3.029,0-4.457.572-5.488,2.229l-4.568-3.484c2.229-3.087,5.426-4.227,9.769-4.227,7.144,0,12.056,2.4,12.056,9.538v19.773h-5.829Z" transform="translate(31.172 10.929)" fill="#f77e10"/>
    <path id="Path_7" data-name="Path 7" d="M552.846,139.709l-33.922-20.215a2.558,2.558,0,0,0-1.39-.348,2.891,2.891,0,0,0-2.861,2.865v40.43a2.832,2.832,0,0,0,4.336,2.43l33.837-20.216a2.991,2.991,0,0,0,1.477-2.517,2.852,2.852,0,0,0-1.477-2.43" transform="translate(37.913 0)" fill="#a4ab0f"/>
    <path id="Path_8" data-name="Path 8" d="M580.366,128.9c1.529-2.522,1.093-4.306-.239-5.117a2.837,2.837,0,0,0-2.8-.078l-27.48,14.976a3.02,3.02,0,0,0-1.139,1.036,2.894,2.894,0,0,0,.962,3.934l13.419,8.155a2.89,2.89,0,0,0,3.934-.959L580.366,128.9" transform="translate(48.503 1.332)" fill="#f77e10"/>
  </g>
</svg>
